<svg id="Layer_1" data-name="Layer 1" xmlns="http://www.w3.org/2000/svg" viewBox="0 0 448.97 209">
  <title>litzen-logo-black</title>
  <g>
    <path d="M276.08,416.3H199L262.86,283a32.79,32.79,0,0,1-16.59,4.4,41,41,0,0,1-5.9-.43l10-20.69h4.85q12.6,0,22.92-15h28.69L238.59,393.42h49Z" transform="translate(-199.03 -251.3)"/>
    <path d="M362.48,312l-50.06,104.5H285.61L335.67,312Zm-2-16.94q-6.64.22-10.38-3.41t-2.37-9.13q1.37-5.5,7-9.57a21.94,21.94,0,0,1,12.3-4.29q6.63-.22,10.38,3.41t2.37,9.13q-1.37,5.5-7,9.57A21.91,21.91,0,0,1,360.51,295.08Z" transform="translate(-199.03 -251.3)"/>
    <path d="M362.92,416.3H336.29l39-81.4H363l10.87-22.66h12.29l21.61-45.1h26.57l-21.45,45.1H429.8L418.71,334.9H402Z" transform="translate(-199.03 -251.3)"/>
    <path d="M430.66,393.42h30.2L450.31,416.3h-67l69.46-81.62H420.52L431.21,312h68.73Z" transform="translate(-199.03 -251.3)"/>
    <path d="M497.7,381.54q-1,9.46,2.71,11.66a13.34,13.34,0,0,0,2.46,1.76q13.88.22,27.16-11.88l-14.17,29.66q-9.62,6-18.92,6a26.84,26.84,0,0,1-15.11-4.62q-15.35-9.9-8.38-37.84A92.72,92.72,0,0,1,487,346.78a91.78,91.78,0,0,1,25.11-25.41q14.39-9.57,26.59-9.57a22.22,22.22,0,0,1,11.82,3.08q13.81,5.94,8.71,26.4A42.73,42.73,0,0,1,557,348.1q-6.17,13.86-20.8,24.42t-28.77,10.56A29.43,29.43,0,0,1,497.7,381.54ZM504,362.4a28.77,28.77,0,0,0,7.14.88A29.16,29.16,0,0,0,528.35,358q8-6.38,9.57-12.76a10.12,10.12,0,0,0-.62-6.82q-1.5-3.3-4.6-3.3-6.78,0-16.27,10.12A75.3,75.3,0,0,0,504,362.4Z" transform="translate(-199.03 -251.3)"/>
    <path d="M615.21,432.8q4.4.22,9.37-4.18l.87,19.8q-11.84,11-29.1,11.88-11.23,0-16.14-9a21.2,21.2,0,0,1-2.44-15.83q-.27,1.1,6.58-19.13l33.45-69.74a9.53,9.53,0,0,0,.87-2.2q.93-3.75-1.66-5.73a3.33,3.33,0,0,0-2.76-1.32q-3.48,0-8.47,3.74-3.56,2.64-7.17,5.5a29.37,29.37,0,0,0-6,6.38L561.93,416.3H535.3l49.9-103.84h26.62l-3.21,7q12.6-7,22.86-7a18.92,18.92,0,0,1,6.17.87q13.86,8.09,9.17,26.89a37,37,0,0,1-2.16,6.34L611,416.3Q606.91,431.91,615.21,432.8Z" transform="translate(-199.03 -251.3)"/>
  </g>
</svg>
