<svg id="Layer_1" data-name="Layer 1" xmlns="http://www.w3.org/2000/svg" viewBox="0 0 30 30">
  <title>litzen-icon</title>
  <g>
    <path d="M12.6,23.66H.58L5.35,5.35A4.67,4.67,0,0,1,2.93,6,7.68,7.68,0,0,1,2,5.9l.76-2.84h.76A3.24,3.24,0,0,0,6.5,1H11L5.86,20.52h7.65Z" style="fill: #fff"/>
    <path d="M27.22,25.92a1.71,1.71,0,0,0,1.3-.57l.91,2.72a5.7,5.7,0,0,1-4.08,1.63,3.69,3.69,0,0,1-2.87-1.24,3.27,3.27,0,0,1-1-2.17q0,.15.28-2.63l2.51-9.58a1,1,0,0,0,.05-.3.86.86,0,0,0-.48-.79.72.72,0,0,0-.48-.18,1.93,1.93,0,0,0-1.18.51q-.45.36-.9.76a2.85,2.85,0,0,0-.69.88l-2.32,8.7H14.11L17.85,9.4H22l-.23,1a6.62,6.62,0,0,1,3.29-1,3.71,3.71,0,0,1,1,.12,3.8,3.8,0,0,1,2.48,3.69,3.84,3.84,0,0,1-.09.87l-2.54,9.58Q25.89,25.8,27.22,25.92Z" style="fill: #fff"/>
  </g>
</svg>
